<svg width="46" height="50" xmlns="http://www.w3.org/2000/svg">

 <g>
  <title>Layer 1</title>
  <line stroke="#fbbc34" stroke-linecap="undefined" stroke-linejoin="undefined" id="svg_8" y2="25.16575" x2="0.01657" y1="2.40331" x1="25.32044" fill="none"/>
  <line stroke="#fbbc34" stroke-linecap="undefined" stroke-linejoin="undefined" id="svg_9" y2="25.27624" x2="-0.53591" y1="45.05525" x1="21.01105" fill="none"/>
  <ellipse stroke="#fbbc34" ry="24.53039" rx="15.69061" id="svg_10" cy="25.27624" cx="30.29282" fill="#fbbc34"/>
  <path id="svg_12" d="m9.18784,20.63536" opacity="NaN" stroke="#fbbc34" fill="#fbbc34"/>
  <path d="m17.14365,11.35359c-0.1105,0 -0.22099,0 -0.33149,0c-0.22099,0 -0.44199,0.1105 -0.44199,0.33149c0,0.1105 -0.097,0.22182 -0.1105,0.33149c-0.05567,0.45218 -0.27472,0.64351 -0.33149,0.88398c-0.02539,0.10754 0,0.22099 0,0.33149c0,0.1105 -0.2016,0.23181 -0.33149,0.44199c-0.05809,0.09399 -0.03236,0.47435 -0.1105,0.55249c-0.07813,0.07813 -0.14286,0.14286 -0.22099,0.22099c-0.07813,0.07813 -0.16119,0.07662 -0.22099,0.22099c-0.04229,0.10209 -0.1105,0.1105 -0.1105,0.44199c0,0.1105 -0.10847,0.18917 -0.22099,0.77348c-0.04179,0.21701 0.09735,0.57629 -0.1105,1.21547c-0.15282,0.46994 -0.33149,0.77348 -0.33149,0.99447c0,0.1105 -0.03236,0.14286 -0.1105,0.22099c-0.2344,0.2344 0,0.44199 0,0.77348c0,0.22099 0,0.44199 0,0.66298c0,0.33149 -0.03397,0.68354 0.1105,0.88398c0.18274,0.25354 0.17871,0.3399 0.22099,0.44199c0.0598,0.14437 0.1105,0.22099 0.1105,0.44199c0,0.1105 0,0.22099 0,0.44199c0,0.44199 0,0.66298 0,0.77348c0,0.22099 0,0.33149 0,0.88398c0,0.1105 -0.10554,0.39217 -0.22099,0.77348c-0.09606,0.31727 0,0.44199 0,0.66298c0,0.33149 0.15627,0.50672 0,0.66298c-0.07813,0.07813 -0.20329,-0.11192 -0.22099,-0.22099c-0.05597,-0.34491 -0.43707,-0.92439 -0.66298,-1.98895c-0.16057,-0.75663 0,-1.32597 0,-1.76796c0,-0.22099 0,-0.55249 0,-1.10497c0,-0.44199 0,-0.77348 0,-0.99447c0,-0.33149 0.0928,-0.55391 0.1105,-0.66298c0.05597,-0.34491 0.27583,-0.65279 0.33149,-1.10497c0.0135,-0.10967 0.01143,-0.21064 0.1105,-0.33149c0.25258,-0.3081 0.23995,-0.90294 0.55249,-1.21547c0.07813,-0.07813 0.34744,-0.32421 0.44199,-0.55249c0.13372,-0.32282 0.1105,-0.44199 0.1105,-0.33149c0,0.22099 0.0708,1.00018 0,1.43646c-0.05597,0.34491 -0.32845,0.95553 -0.44199,1.43646c-0.02539,0.10754 -0.03576,0.38897 -0.22099,0.55249c-0.29867,0.26366 -0.22099,0.66298 -0.22099,0.99447c0,0.1105 0,0.55249 0,0.66298c0,0.1105 0,0 -0.1105,0c-0.22099,0 -0.10996,0.64658 -0.22099,1.76796c-0.06533,0.65976 0,0.88398 0,1.32597c0,0.22099 0,0.44199 0,0.55249c0,0.1105 0.0177,-0.11192 0,-0.22099c-0.11194,-0.68982 -0.55104,-1.18863 -0.66298,-1.87845c-0.1416,-0.87256 0,-1.87845 0,-2.76243c0,-0.66298 0,-0.99448 0,-1.65746c0,-0.66298 0,-0.77348 0,-0.99447c0,-0.1105 0.13803,0.24709 -0.22099,1.76796c-0.16056,0.68015 -0.33041,1.41329 -0.44199,2.20994c-0.10728,0.766 -0.15678,1.79631 -0.33149,2.32044c-0.2446,0.73379 0.26069,1.33167 0.33149,1.76796c0.05597,0.34491 0.1105,0.55249 0.1105,0.33149c0,-0.66298 -0.1105,-2.43094 -0.1105,-2.98343c0,-2.54144 0,-4.86188 0,-6.07735c0,-0.55249 -0.07813,-0.80584 0,-0.88398c0.07813,-0.07813 0.16569,0.65923 0.22099,1.87845c0.06509,1.43499 -0.33572,3.53622 -0.22099,5.08287c0.10657,1.43676 0.44199,2.76243 0.44199,3.42542c0,0.33149 0.07662,1.05428 0.22099,0.99447c0.10209,-0.04229 0.05883,-0.55346 0,-2.32044c-0.05528,-1.66022 -0.22099,-2.98343 -0.22099,-3.20442c0,-0.33149 0.14459,-0.34546 0.22099,-0.1105c0.20785,0.63918 0.55224,2.08845 0.66298,3.75691c0.06586,0.99229 0,2.43094 0,3.09392c0,1.10497 1.61399,2.47441 0.44199,3.64641c-0.07813,0.07813 -0.35115,0.0123 -0.55249,-0.33149c-0.72806,-1.24321 -0.33149,-2.32044 -0.66298,-3.31492c-0.33149,-0.99447 -0.44199,-1.98895 -0.44199,-2.43094c0,-0.44199 -0.1105,-0.66298 -0.1105,-0.99447c0,-0.1105 -0.0928,-0.11193 -0.1105,-0.22099c-0.05597,-0.34491 -0.27177,-0.54657 -0.22099,-0.33149c0.05677,0.24047 0.38328,0.83312 0.55249,1.65746c0.24439,1.19065 0.16547,2.20175 0.22099,2.76243c0.05444,0.5498 -0.1105,0.77348 0,0.77348c0.44199,0 -0.53086,-0.78704 -0.88398,-1.32597c-1.40465,-2.14377 -1.31989,-5.66796 -1.54696,-6.62984c-0.05077,-0.21508 0,-0.33149 0,-0.22099c0,0.44199 0.22099,1.76796 0.22099,5.08287c0,2.87293 -0.11022,4.62911 -0.22099,6.18785c-0.03917,0.5511 0,0.99448 0,0.77348c0,-0.66298 0.22099,-1.21547 0.22099,-1.98895c0,-0.66298 0,-0.99448 0,-1.10497c0,-0.22099 0.1105,-0.33149 0.1105,-0.55249l0.1105,-0.22099l0.1105,-0.1105l0,-0.1105" id="svg_16" stroke="#fbbc34" fill="none"/>
  <path d="m7.86188,23.0663c-0.1105,0 0.01211,0.34004 -0.1105,1.21547c-0.11158,0.79666 -0.39614,1.70032 -0.66298,2.65193c-0.35925,1.28115 -0.1105,1.87845 -0.1105,2.43094c0,0.22099 0,0.33149 0.22099,-0.1105c0.33149,-0.66298 0.80432,-2.01007 1.10497,-2.98343c0.17561,-0.56854 0.29883,-0.99609 0.33149,-1.32597c0.05552,-0.56069 -0.06835,-1.49395 0.33149,-2.43094c0.15637,-0.36644 0.33617,-0.17487 -0.1105,0.77348c-0.44418,0.94306 -0.93299,1.81001 -1.10497,2.43094c-0.17697,0.63893 -0.16556,1.7611 -0.22099,2.43094c-0.0638,0.77084 0,0.88398 0,0.77348c0,-0.44199 0.1325,-1.77509 0.22099,-2.32044c0.11194,-0.68982 0.33149,-1.43646 0.33149,-1.76796c0,-0.22099 0.0353,-0.13698 0.1105,0c0.49023,0.89303 0.18879,1.59105 0.66298,2.87293c0.08572,0.23173 0.10603,0.55096 0.22099,0.22099c0.42553,-1.22133 0.53579,-2.43609 0.88398,-3.53591c0.21093,-0.66625 0.22099,-0.99447 0.22099,-1.54696c0,-0.66298 0.1105,-1.10497 0,-1.10497c-0.33149,0 -0.01552,0.66483 0.1105,1.65746c0.0984,0.77511 0.25345,2.46584 -0.1105,3.64641c-0.32061,1.03997 -0.34799,1.59937 -0.44199,1.65746c-0.21018,0.1299 -0.00675,-0.71734 -0.44199,-2.32044c-0.19421,-0.71534 -0.31089,-1.32661 -0.33149,-1.65746c-0.05536,-0.88914 -0.44199,-1.87845 -0.44199,-2.43094c0,-0.22099 0.05483,-0.34168 0.1105,0.1105c0.027,0.21934 0.52079,1.63458 0.77348,2.65193c0.16202,0.65231 0.14286,0.85161 0.22099,0.77348c0.15627,-0.15627 0,-1.10497 0,-2.20995c0,-0.55249 0.05453,-1.42305 0.1105,-1.76796c0.0531,-0.32721 -0.07813,-0.58485 0,-0.66298c0.15627,-0.15627 0.31617,0.20477 0.55249,1.87845c0.18602,1.3175 0.0086,2.44806 0.22099,3.75691c0.11194,0.68982 0.36386,1.18311 0.44199,1.10497c0.2344,-0.2344 0.16568,-0.65885 0.22099,-1.76796c0.06605,-1.32432 0,-2.43094 0,-2.98343c0,-0.22099 0,-0.33149 0,-0.55249c0,-0.1105 0.06227,-0.10786 0.1105,0.33149c0.11116,1.01265 0.344,1.5518 0.44199,2.54144c0.05552,0.56069 0.1105,0.88398 0.22099,0.88398c0.33149,0 0.02007,-1.1052 0,-1.98895c-0.05526,-2.43282 0.10093,-3.35697 -0.1105,-3.8674c-0.1196,-0.28874 0.22099,-0.77348 -0.22099,-0.77348c-0.1105,0 0.18287,0.63928 0.33149,1.21547c0.2225,0.86263 0.44199,1.87845 0.44199,2.32044c0,1.32597 0.1105,1.98895 0.22099,2.43094c0.1105,0.44199 0.07662,0.83328 0.22099,0.77348c0.10209,-0.04229 0,-0.44199 0,-0.66298c0,-0.33149 -0.03445,-0.54198 -0.22099,-1.21547c-0.27193,-0.98177 -0.20464,-2.01418 -0.33149,-2.32044c-0.0598,-0.14437 -0.09498,0.00185 -0.22099,0.99447c-0.19681,1.55022 -0.55204,3.07899 -0.66298,4.30939c-0.06946,0.77036 -0.1105,1.43646 -0.1105,1.87845c0,0.44199 -0.22099,0.88398 0,0.88398c0.1105,0 0.01552,-1.6593 -0.1105,-2.65193c-0.0984,-0.77511 -0.16788,-1.16665 -0.44199,-1.54696c-0.28894,-0.40088 -0.44199,-0.77348 -0.55249,-0.77348c-0.1105,0 -0.22941,0.04229 -0.33149,0c-0.14437,-0.0598 -0.23181,-0.31209 -0.44199,-0.44199c-0.094,-0.05809 -0.13135,-0.04589 -0.22099,-0.1105c-0.56693,-0.40862 -0.33149,-0.99447 -0.33149,-1.21547c0,-0.1105 -0.0732,-0.47624 0.1105,-0.77348c0.49293,-0.79757 1.09814,-1.00316 1.65746,-1.43646c0.43676,-0.33835 0.66298,-0.66298 0.66298,-0.77348c0,-0.1105 0.1105,-0.33149 0.1105,-0.77348c0,-0.1105 -0.23998,0.33755 -0.66298,0.99448c-0.51112,0.79377 -0.56143,1.55878 -0.66298,1.98895c-0.05677,0.24047 -0.22099,0.44199 -0.22099,0.55249c0,0.1105 -0.10102,0.28503 0.1105,0.22099c0.38131,-0.11545 1.35104,-0.86386 1.87845,-1.54696c0.5809,-0.75237 0.69535,-0.80585 0.77348,-0.88398c0.07813,-0.07813 0.18863,-0.25336 0.1105,-0.33149c-0.07813,-0.07813 -0.35549,0.08207 -0.88398,0.55249c-0.77865,0.69309 -1.47376,1.51271 -1.65746,1.21547c-0.08215,-0.13293 0.3752,-0.12207 1.21547,-0.55249c0.35459,-0.18163 0.35742,-0.23782 0.44199,-0.44199c0.0598,-0.14437 0.33445,-0.19561 0.44199,-0.22099c0.24047,-0.05677 0.39129,-0.18712 0.33149,-0.33149c-0.04228,-0.10209 -0.37613,-0.06502 -0.88398,0.33149c-0.86219,0.67318 -1.31578,1.04931 -1.76796,1.10497c-0.21934,0.027 -0.33149,0 -0.55249,0c-0.22099,0 -0.47596,-0.02055 -0.33149,-0.22099c0.45685,-0.63385 1.14557,-1.29139 2.09945,-2.09945c0.72528,-0.6144 0.74293,-0.42711 -1.10497,0.66298c-1.27686,0.75323 -1.87845,0.99448 -1.87845,1.10497c0,0.1105 0.11543,-0.43648 1.10497,-1.32597c0.70692,-0.63544 1.76796,-1.21547 2.43094,-1.87845c0.66298,-0.66298 1.19925,-1.08986 0.99448,-1.32597c-0.36199,-0.41738 -0.79971,0.5235 -1.65746,1.32597c-1.02702,0.96083 -2.01467,2.51196 -2.65193,3.09392c-0.46156,0.42151 -0.322,0.22973 -0.22099,0.1105c0.6144,-0.72528 0.93316,-1.38363 1.76796,-2.20995c0.72402,-0.71667 1.23328,-1.41395 1.65746,-1.76796c0.1897,-0.15832 0.48827,-0.48827 0.66298,-0.66298c0.17471,-0.17471 0.09951,-0.13123 -0.33149,0.1105c-0.9092,0.50991 -2.1817,2.13048 -3.75691,3.53591c-0.76015,0.67822 -1.19599,1.38273 -1.43646,1.32597c-0.10754,-0.02539 0.34499,-0.64783 1.21547,-1.43646c0.70443,-0.6382 1.48195,-0.71382 2.09945,-1.43646c0.16051,-0.18784 0.29752,-0.24155 0.44199,-0.44199c0.09137,-0.12677 0.61229,-0.40811 0.55249,-0.55248c-0.04228,-0.10209 -0.54394,-0.12792 -1.54696,0.44199c-1.56394,0.88862 -2.67765,1.84898 -3.31492,2.43094c-0.11539,0.10538 -0.01035,0.09907 0.1105,0c0.3081,-0.25258 1.00242,-0.65782 1.21547,-0.99447c0.34454,-0.54445 0.67967,-0.60051 0.88398,-0.88398c0.06461,-0.08964 0.03236,-0.14286 0.1105,-0.22099c0.07813,-0.07813 0.40962,-0.25336 0.33149,-0.33149c-0.07813,-0.07813 -0.24438,-0.03159 -0.55249,0.22099c-0.48339,0.39629 -0.53301,0.71671 -0.77348,0.77348c-0.10754,0.02539 -0.17522,-0.04577 -0.33149,0.1105c-0.07813,0.07813 -0.03236,0.14286 -0.1105,0.22099c-0.07813,0.07813 -0.25336,0.03236 -0.33149,0.1105c-0.07813,0.07813 -0.1105,0.1105 -0.22099,0.1105c-0.22099,0 -0.49269,0.07662 -0.55249,0.22099c-0.04229,0.10209 -0.14286,0.14286 -0.22099,0.22099c-0.07813,0.07813 -0.14286,0.14286 -0.22099,0.22099c-0.07813,0.07813 -0.03236,0.14286 -0.1105,0.22099c-0.07813,0.07813 -0.28079,0.07662 -0.22099,0.22099c0.04229,0.10209 0.29752,-0.13105 0.44199,-0.33149c0.27411,-0.38031 0.6573,-0.91698 0.77348,-1.10497c0.1299,-0.21018 0.25336,-0.14286 0.33149,-0.22099c0.2344,-0.2344 0.1105,-0.44199 0.22099,-0.44199c0.1105,0 0.07662,-0.16119 0.22099,-0.22099c0.30626,-0.12686 0.39622,0.04577 0.55249,-0.1105c0.15627,-0.15627 0.14286,-0.14286 0.22099,-0.22099c0.07813,-0.07813 0.11891,-0.06821 0.22099,-0.1105c0.14437,-0.0598 0.36386,-0.14286 0.44199,-0.22099c0.07813,-0.07813 0.254,-0.09073 0.44199,-0.44199c0.10428,-0.19484 0.14286,-0.14286 0.22099,-0.22099c0.07813,-0.07813 0.03236,-0.14286 0.1105,-0.22099c0.07813,-0.07813 0.14286,-0.03236 0.22099,-0.1105c0.07813,-0.07813 0.1105,-0.1105 0.22099,-0.1105c0.1105,0 0.22099,0 0.33149,-0.1105c0.1105,-0.1105 0.22099,-0.1105 0.33149,-0.1105c0.1105,0 0.31202,-0.16423 0.55249,-0.22099c0.10754,-0.02539 0.18712,-0.0507 0.33149,-0.1105c0.10209,-0.04229 0.16423,-0.09102 0.22099,-0.33149c0.02539,-0.10754 0.1105,-0.1105 0.1105,-0.22099c0,-0.1105 0.1105,-0.1105 0.22099,-0.22099c0.1105,-0.1105 0.03236,-0.25336 0.1105,-0.33149c0.07813,-0.07813 0.1105,-0.1105 0,-0.1105c-0.1105,0 -0.33149,0 -0.44199,0c-0.1105,0 -0.18897,0.00474 -0.22099,0.1105c-0.11545,0.38131 -0.33149,0.55249 -0.33149,0.66298c0,0.1105 -0.06473,0.06473 -0.22099,0.22099c-0.07813,0.07813 0,0.33149 0,0.55248c0,0.1105 -0.1105,0.33149 -0.22099,0.33149c-0.22099,0 -0.38219,-0.03387 -0.44199,0.1105c-0.04228,0.10209 -0.03236,0.14286 -0.1105,0.22099c-0.07813,0.07813 0.09976,0.08572 0.33149,0c0.42729,-0.15807 0.71027,-0.4676 1.43646,-1.21547c0.27754,-0.28583 0.42251,-0.49572 0.66298,-0.55249c0.10754,-0.02539 0.2734,-0.127 0.33149,-0.22099c0.1299,-0.21018 0.36386,-0.36386 0.44199,-0.44199c0.07813,-0.07813 -0.07813,-0.25336 0,-0.33149c0.07813,-0.07813 0.14286,-0.03236 0.22099,-0.1105c0.07813,-0.07813 0.07662,-0.27169 0.22099,-0.33149c0.10209,-0.04228 0.14286,-0.03236 0.22099,-0.1105c0.07813,-0.07813 0.09102,-0.16423 0.33149,-0.22099c0.10754,-0.02539 0.17523,0.04577 0.33149,-0.1105c0.07813,-0.07813 0,-0.22099 0,-0.33149c0,-0.1105 0,-0.22099 0,-0.55249c0,-0.1105 -0.07813,-0.25336 0,-0.33149c0.07813,-0.07813 0.14286,-0.03236 0.22099,-0.1105c0.07813,-0.07813 0.22099,0 0.33149,0c0.1105,0 0.1629,-0.20449 0.22099,-0.1105c0.1299,0.21018 -0.58485,0.25336 -0.66298,0.33149c-0.15627,0.15627 -0.14286,0.25336 -0.22099,0.33149c-0.07813,0.07813 -0.33149,0.1105 -0.44199,0.1105c-0.1105,0 -0.25336,0.03236 -0.33149,0.1105c-0.07813,0.07813 -0.12732,0.02592 -0.33149,0.1105c-0.14437,0.0598 -0.1105,0.22099 -0.1105,0.33149c0,0.1105 0,0.33149 0,0.66298c0,0.22099 0,0.33149 0,0.44199c0,0.1105 -0.07813,0.25336 0,0.33149c0.07813,0.07813 0.22099,0.1105 0.33149,0.1105c0.22099,0 0.36386,-0.14286 0.44199,-0.22099c0.07813,-0.07813 0.22099,-0.33149 0.44199,-0.33149c0.1105,0 0.1105,-0.1105 0.22099,-0.1105c0.1105,0 0.20472,-0.01913 0.33149,-0.1105c0.20044,-0.14447 0.33149,-0.1105 0.55249,-0.1105c0.1105,0 0.0598,-0.07662 0,-0.22099c-0.04229,-0.10209 0,-0.22099 0,-0.33149c0,-0.1105 -0.1105,-0.1105 -0.1105,-0.22099c0,-0.1105 0,-0.22099 0,-0.33149c0,-0.1105 0.1105,-0.1105 0.1105,-0.33149c0,-0.1105 0,-0.22099 0,-0.33149c0,-0.1105 0,-0.22099 0,-0.33149c0,-0.1105 -0.03236,-0.40962 -0.1105,-0.33149c-0.07813,0.07813 0.23586,0.47112 -0.22099,1.10497c-0.14447,0.20044 -0.12216,0.24433 -0.22099,0.44199c-0.24708,0.49416 -0.66017,0.55475 -1.10497,1.10497c-0.15533,0.19214 -0.144,0.4165 -0.22099,0.55249c-0.22447,0.39646 -0.1105,0.55249 -0.1105,0.66298c0,0.22099 0,0.44199 0,0.66298c0,0.1105 0.15627,0.39622 0,0.55249c-0.15627,0.15627 -0.22099,0.1105 -0.22099,0.22099l0,0.1105l0,0.22099" id="svg_17" stroke="#fbbc34" fill="none"/>
  <path d="m13.05525,20.74586c0,-0.1105 0,-0.44199 0,-0.99447c0,-0.33149 -0.22099,-0.33149 -0.33149,-0.33149c-0.1105,0 -0.25525,-0.03729 -0.55249,-0.22099c-0.13293,-0.08215 -0.16502,-0.20757 -0.22099,-0.55249c-0.0354,-0.21814 0,-0.33149 0,-0.66298c0,-0.1105 0.0898,-0.13335 0.33149,-0.33149c0.3081,-0.25258 0.75408,-0.34231 0.88398,-0.55249c0.05809,-0.09399 0.33149,-0.66298 0.88398,-1.21547c0.1105,-0.1105 0.1105,-0.22099 0.1105,-0.44199c0,-0.1105 -0.07813,-0.25336 0,-0.33149c0.07813,-0.07813 0.22099,0 0.33149,0c0.22099,0 0.45522,0.33176 0.44199,0.66298c-0.11059,2.76905 0.11879,4.30804 0.33149,5.63536c0.22997,1.43505 0.02289,2.24866 -0.33149,3.53591c-0.26558,0.9647 -0.49682,1.64727 -0.55249,2.09945c-0.027,0.21934 0.05809,0.45849 0,0.55249c-0.1299,0.21018 -0.23242,0.21064 -0.33149,0.33149c-0.25258,0.3081 -0.1502,0.66869 -0.22099,1.10497c-0.05597,0.34491 -0.081,0.5565 -0.1105,0.66298c-0.17199,0.62093 -0.55249,0.88398 -0.33149,0.88398c0.1105,0 -0.0678,-0.79083 0.33149,-2.20994c0.28392,-1.00909 0.12945,-1.56592 0.44199,-1.87845c0.07813,-0.07813 0.24244,-0.01231 0.55249,0.55249c0.23779,0.43318 0.55249,0.99447 0.55249,1.10497c0,0.44199 -0.05373,0.64351 -0.1105,0.88398c-0.02539,0.10754 0,0.22099 -0.22099,0.22099c-0.1105,0 -0.24533,-0.08783 -0.55249,-0.44199c-0.36199,-0.41738 -0.60318,0.18712 -0.66298,0.33149c-0.25371,0.61252 -0.13139,0.66498 -0.1105,0.77348c0.11253,0.58431 0.74239,2.11593 1.10497,2.76243c0.50991,0.9092 0.71368,1.51309 0.77348,1.65746c0.04228,0.10209 0.07662,0.50179 0.22099,0.44199c0.40834,-0.16914 0.31914,-1.06758 -0.1105,-2.20995c-0.52906,-1.40673 -0.78482,-1.80198 -0.99447,-2.43094c-0.17471,-0.52414 -0.36386,-0.69535 -0.44199,-0.77348c-0.07813,-0.07813 -0.27108,-0.14011 -0.44199,0c-0.87144,0.71441 -0.60095,2.63178 -0.99448,3.64641c-0.37906,0.97733 -0.73338,2.47265 -0.88398,2.43094c-0.43906,-0.12161 -0.4418,-2.53172 -0.55249,-4.41989c-0.0582,-0.99277 0,-1.76796 0,-2.87293c0,-1.10497 0,-2.87293 0,-3.64641c0,-0.33149 0.0911,-0.09968 0.22099,0.1105c0.29046,0.46997 0.66154,1.07813 0.77348,1.76796c0.0708,0.43628 0,0.55249 0,0.77348c0,0.44199 0,0.55249 0,0.66298c0,0.1105 0,0.22099 0,0.44199c0,0.22099 0.14286,0.14286 0.22099,0.22099c0.07813,0.07813 0.05373,0.20152 0.1105,0.44199c0.02539,0.10754 0.03031,0.42928 0.1105,0.66298c0.18285,0.53293 0.38647,0.98627 0.44199,1.54696c0.01089,0.10996 0.0507,0.18712 0.1105,0.33149c0.04228,0.10209 -0.02761,0.8246 0.33149,1.10497c0.08709,0.068 0.16119,0.29762 0.22099,0.44199c0.08457,0.20417 0.1105,0.33149 0.1105,0.44199c0,0.221 0.05373,0.31202 0.1105,0.55249c0.02539,0.10754 0.22099,0.221 0.22099,0.33149c0,0.1105 0.14286,0.14286 0.22099,0.22099c0.07814,0.07814 0.1105,0.221 0.33149,0.44199c0.22099,0.22099 0.36386,0.25336 0.44199,0.33149c0.07813,0.07813 0.1105,0.22099 0.33149,0.44199c0.1105,0.1105 0.17871,0.22941 0.22099,0.33149c0.0598,0.14437 -0.10093,0.26305 0.1105,0.77348c0.0598,0.14437 0.1105,0.221 0.1105,0.33149c0,0.1105 0.1105,0.1105 0.1105,0.22099c0,0.1105 0,0.221 0,0.33149c0,0.1105 0.16119,0.07662 0.22099,0.22099c0.04229,0.10209 0.22099,0.1105 0.22099,0.221c0,0.1105 0.03236,0.14286 0.1105,0.22099c0.07813,0.07813 0.05453,0.20757 0.1105,0.55249c0.0177,0.10907 0.1105,0.22099 0.1105,0.33149c0,0.1105 0.2375,0.16291 0.33149,0.221c0.21018,0.1299 0.1612,0.29762 0.22099,0.44199c0.08457,0.20417 0.1105,0.22099 0,0.22099c-0.1105,0 -0.24439,0.03159 -0.55249,-0.22099c-0.12085,-0.09907 -0.11891,-0.17871 -0.22099,-0.221c-0.14437,-0.0598 -0.46254,-0.18702 -0.66298,-0.33149c-0.12677,-0.09137 -0.21189,-0.15325 -0.33149,-0.44199c-0.04228,-0.10209 -0.33149,-0.33149 -0.33149,-0.66298c0,-0.1105 -0.22099,-0.1105 -0.22099,-0.33149c0,-0.1105 -0.1105,-0.1105 -0.1105,-0.22099c0,-0.1105 -0.11891,-0.17871 -0.22099,-0.221c-0.14437,-0.0598 -0.31522,-0.35062 -0.44199,-0.44199c-0.20044,-0.14447 -0.29752,-0.24155 -0.44199,-0.44199c-0.09137,-0.12677 -0.2892,-0.2294 -0.33149,-0.33149c-0.0598,-0.14437 -0.17523,-0.06473 -0.33149,-0.22099c-0.07813,-0.07813 -0.00841,-0.28921 -0.1105,-0.33149c-0.28874,-0.1196 -0.18712,-0.38219 -0.33149,-0.44199c-0.10209,-0.04229 -0.17871,-0.11891 -0.22099,-0.221c-0.0598,-0.14437 -0.22941,-0.17871 -0.33149,-0.22099c-0.14437,-0.0598 -0.15278,0.00841 -0.1105,0.1105c0.0598,0.14437 0.06821,0.2294 0.1105,0.33149c0.0598,0.14437 0.14286,0.14286 0.22099,0.22099c0.07813,0.07813 0.06821,0.11891 0.1105,0.22099c0.0598,0.14437 0.16119,0.18712 0.22099,0.33149c0.04228,0.10209 0,0.22099 0.1105,0.22099c0.1105,0 0.22099,0 0.33149,0c0.22099,0 0.45086,0.07616 0.77348,0c0.24047,-0.05677 0.44199,-0.1105 0.55249,-0.1105c0.22099,0 0.33149,0 0.44199,0c0.1105,0 0.39622,-0.15627 0.55249,0c0.07813,0.07813 0.18712,0.38219 0.33149,0.44199c0.10209,0.04229 0.18863,0.14286 0.1105,0.22099c-0.07813,0.07813 -0.22941,0.04229 -0.33149,0c-0.14437,-0.0598 -0.20159,-0.12131 -0.33149,-0.33149c-0.05809,-0.09399 0.07813,-0.25336 0,-0.33149c-0.07813,-0.07813 -0.1105,-0.1105 -0.1105,-0.22099c0,-0.1105 0.09606,-0.34572 0,-0.66298c-0.11545,-0.38131 -0.31809,-0.87057 -0.55249,-1.10497c-0.07813,-0.07813 -0.14483,0.00887 -0.22099,0.33149c-0.05677,0.24047 -0.1105,0.44199 -0.1105,0.88398c0,0.33149 0,0.66298 0,0.77348c0,0.1105 0,0.33149 0.1105,0.33149c0.1105,0 0.22099,0 0.33149,0c0.1105,0 0.28572,-0.04577 0.44199,0.1105c0.07813,0.07813 0,0.22099 0,0.1105c0,-0.44199 0,-0.66298 0,-1.10497c0,-0.55249 0.0491,-1.16607 -0.44199,-2.20995c-0.1696,-0.3605 -0.25336,-0.47435 -0.33149,-0.55248c-0.07814,-0.07814 -0.1105,-0.221 -0.1105,-0.1105c0,0.1105 0,0.221 0,0.44199c0,0.44199 0.08457,0.56931 0,0.77348c-0.0598,0.14437 -0.16119,0.18712 -0.22099,0.33149c-0.04228,0.10209 -0.00841,0.28921 -0.1105,0.33149c-0.14437,0.0598 -0.14286,0.14286 -0.22099,0.22099c-0.07813,0.07813 -0.1105,0.1105 -0.22099,0.1105c-0.22099,0 -0.45373,-0.5075 -0.99448,-1.21547c-0.09485,-0.12419 -0.1105,-0.22099 0,-0.33149c0.1105,-0.1105 0.1105,-0.33149 0.22099,-0.33149c0.22099,0 0.27169,0.07662 0.33149,0.22099c0.08457,0.20417 0,0.66298 0.1105,0.66298c0.33149,0 0.00841,-0.48427 0.1105,-0.44199c0.14437,0.0598 0.55141,0.63981 0.66298,1.43646c0.03065,0.21886 0.1105,0.33149 0.1105,0.44199c0,0.22099 0,0.33149 -0.1105,0.33149c-0.1105,0 -0.12357,-0.05836 -0.22099,-0.1105c-0.35126,-0.18799 -0.44199,-0.66298 -0.44199,-0.77348c0,-0.22099 0.03409,-0.31752 0.1105,-0.55249c0.20785,-0.63918 0.33149,-0.99448 0.44199,-0.99448c0.22099,0 0.36974,-0.03255 0.55249,0.221c0.14447,0.20044 0.41149,0.6876 0.77348,1.10497c0.10239,0.11805 0.16548,0.43379 0.22099,0.99447c0.02178,0.21992 0.16119,0.29762 0.22099,0.44199c0.04228,0.10209 0,0.44199 0,0.55249c0,0.1105 0.07813,0.25336 0,0.33149c-0.07813,0.07813 -0.28572,0.15627 -0.44199,0c-0.07813,-0.07813 -0.18941,-0.24438 -0.44199,-0.55248c-0.39629,-0.48339 -0.53309,-0.5633 -0.66298,-0.77348c-0.05809,-0.09399 -0.11945,-0.34332 -0.22099,-0.77348c-0.1703,-0.72141 -0.51851,-1.23602 -0.66298,-1.43647c-0.27411,-0.38031 -0.74801,-0.70618 -0.99448,-1.10497c-0.36741,-0.59447 -0.5745,-1.44849 -0.66298,-1.76796c-0.17199,-0.62093 -0.55249,-0.66298 -0.55249,-0.77348c0,-0.1105 -0.03236,-0.47435 -0.1105,-0.55248c-0.07813,-0.07813 0.32239,-0.17825 0.44199,0.1105c0.04228,0.10209 0.30532,0.70093 0.55249,1.32597c0.14651,0.37049 0.33149,0.77348 0.33149,1.21547c0,0.1105 0.22099,0.22099 0.22099,0.33149c0,0.1105 0.0507,0.29762 0.1105,0.44199c0.04228,0.10209 -0.09698,0.1032 -0.22099,-0.1105c-0.19997,-0.34459 -0.22099,-0.44199 -0.22099,-0.66298c0,-0.1105 0.05077,-0.4479 0,-0.66298c-0.05677,-0.24047 -0.1105,-0.33149 -0.1105,-0.55249c0,-0.1105 0,-0.33149 0,-0.66298c0,-0.33149 0,-0.55249 0,-0.66298c0,-0.1105 -0.03236,-0.40962 -0.1105,-0.33149c-0.07813,0.07813 0,0.22099 0,0.33149c0,0.22099 0,0.55249 0,1.21547c0,0.22099 0,0.55249 0,0.88398c0,0.33149 0,0.66298 0,0.88398c0,0.22099 0,0.33149 0,0.66298c0,0.1105 0,0.22099 -0.1105,0.22099c-0.1105,0 -0.22099,0 -0.33149,0c-0.22099,0 -0.42259,-0.01081 -0.55249,-0.22099c-0.05809,-0.09399 -0.1105,-0.33149 -0.33149,-0.77348c-0.33149,-0.66298 -0.66298,-0.99447 -0.66298,-1.10497c0,-0.22099 0.16914,-0.36514 0,-0.77348c-0.0598,-0.14437 -0.1105,-0.33149 -0.1105,-0.44199c0,-0.1105 0,-0.22099 0,-0.33149c0,-0.1105 0.1105,-0.55249 0,-0.55249c-0.22099,0 0,0.44199 0,0.55249c0,0.55249 -0.14627,1.22943 0,1.98895c0.11253,0.58431 0.22099,0.77348 0.22099,0.88398c0,0.1105 0.03236,0.14286 0.1105,0.22099c0.07813,0.07813 0.03236,0.14286 0.1105,0.221c0.07813,0.07813 -0.03387,0.38219 0.1105,0.44199c0.10209,0.04229 0.22099,0.1105 0.22099,0.221c0,0.1105 0.03236,0.14286 0.1105,0.22099c0.07813,0.07813 -0.07813,0.36386 0,0.44199c0.15627,0.15627 0.14286,0.14286 0.22099,0.22099c0.15627,0.15627 0.18863,-0.03236 0.1105,-0.1105c-0.07813,-0.07813 -0.12962,-0.20472 -0.22099,-0.33149c-0.14447,-0.20044 -0.11891,-0.2892 -0.22099,-0.33149c-0.14437,-0.0598 -0.27169,-0.07662 -0.33149,-0.221c-0.04228,-0.10209 -0.06473,-0.06473 -0.22099,-0.22099c-0.07813,-0.07813 -0.11891,-0.17871 -0.22099,-0.22099c-0.14437,-0.0598 -0.1105,-0.221 -0.22099,-0.221c-0.1105,0 -0.07662,-0.16119 -0.22099,-0.22099c-0.10209,-0.04229 -0.14286,-0.03236 -0.22099,-0.1105c-0.07813,-0.07813 -0.10139,-0.15325 -0.22099,-0.44199c-0.04228,-0.10209 -0.03236,-0.14286 -0.1105,-0.22099c-0.07813,-0.07813 -0.22099,-0.22099 -0.22099,-0.33149c0,-0.1105 -0.08511,-0.11345 -0.1105,-0.22099c-0.11353,-0.48094 -0.22099,-0.55249 -0.22099,-0.66298c0,-0.1105 -0.1105,-0.22099 -0.1105,-0.44199c0,-0.22099 -0.1105,-0.33149 -0.1105,-0.44199c0,-0.1105 0,-0.33149 0,-0.44199c0,-0.1105 0.1105,-0.33149 0.1105,-0.44199c0,-0.1105 0,-0.22099 0,-0.33149c0,-0.1105 0,-0.22099 0,-0.33149c0,-0.1105 0.14286,-0.18863 0.22099,-0.1105c0.07813,0.07813 0.09739,0.33428 0.22099,0.88398c0.09995,0.44449 0.27552,0.53907 0.33149,0.88398c0.0354,0.21814 0,0.33149 0,0.44199c0,0.1105 0,0.22099 0,0.44199c0,0.1105 0,0.22099 0,0.33149c0,0.1105 0,0 0.1105,-0.22099c0.1105,-0.22099 0.01782,-0.35846 0.22099,-0.88398c0.23233,-0.60096 0.45281,-0.97507 0.66298,-1.10497c0.094,-0.05809 0.18863,-0.14286 0.1105,-0.22099c-0.07813,-0.07813 -0.33999,-0.02967 -0.77348,0.1105c-0.56618,0.18308 -1.05427,0.29762 -0.99447,0.44199c0.04228,0.10209 0.22395,0.08511 0.33149,0.1105c0.24047,0.05677 0.44199,0.44199 0.44199,0.55248c0,0.22099 0.25336,0.47435 0.33149,0.55249c0.07813,0.07813 0.1105,0.22099 0.1105,0.33149c0,0.1105 0,0.22099 0,0.44199c0,0.22099 0,0.33149 -0.1105,0.33149c-0.1105,0 -0.32654,0.04982 -0.44199,-0.33149c-0.51233,-1.6921 0.41525,-2.05832 0.88398,-4.75138c0.19042,-1.09404 0.23896,-2.20665 0.33149,-2.76243c0.27461,-1.64942 0.52972,-1.99861 0.77348,-2.54144c0.10122,-0.2254 0.33149,-0.44199 0.55249,-0.66298c0.1105,-0.1105 0.33149,-0.1105 0.33149,0.1105c0,0.44199 0.11109,1.00576 0,1.54696c-0.1692,0.82434 -0.7228,1.29311 -0.88398,1.65746c-0.18431,0.41665 -0.10122,0.33589 0,0.1105c0.48753,-1.08565 0.94803,-2.11678 1.21547,-2.76243c0.09455,-0.22827 0.16127,-0.10459 0.1105,0.1105c-0.1703,0.72141 -0.683,1.60656 -1.43646,2.65193c-0.59566,0.82644 -1.21939,1.49218 -1.54696,1.98895c-0.08602,0.13046 -0.09422,0.24012 -0.22099,0.33149c-0.20044,0.14447 -0.3618,0.31878 -0.44199,0.55249c-0.18285,0.53293 -0.14483,0.67185 -0.22099,0.99447c-0.05677,0.24047 -0.17871,0.22941 -0.22099,0.33149c-0.0598,0.14437 -0.1105,0.22099 -0.1105,0.33149c0,0.1105 -0.29609,0.44484 -0.33149,0.66298c-0.05597,0.34491 -0.1105,0.44199 -0.22099,0.55249c-0.1105,0.1105 -0.14286,0.25336 -0.22099,0.33149c-0.07813,0.07813 0,0.22099 0,0.33149c0,0.1105 0,0.22099 0,0.33149c0,0.1105 -0.04228,0.22941 0,0.33149c0.0598,0.14437 0.11891,0.17871 0.22099,0.22099c0.14437,0.0598 0.1105,0.22099 0.1105,0.33149c0,0.1105 0.12732,0.02592 0.33149,0.1105c0.14437,0.0598 0.17522,0.17523 0.33149,0.33149c0.07813,0.07813 0.22099,0 0.22099,0.1105c0,0.1105 0.03236,0.14286 0.1105,0.22099c0.07813,0.07813 0.16119,0.07663 0.22099,0.221c0.04228,0.10209 0.03236,0.25336 0.1105,0.33149c0.07813,0.07813 0.1105,0.1105 0.22099,0.1105c0.1105,0 0.03236,0.14286 0.1105,0.22099c0.07813,0.07813 0.07813,0.18863 0,0.1105c-0.15627,-0.15627 -0.2975,-0.4874 -0.66298,-0.99448c-0.14447,-0.20044 -0.1105,-0.33149 -0.22099,-0.44199c-0.1105,-0.1105 -0.32239,-0.04275 -0.44199,-0.33149c-0.04228,-0.10209 -0.20159,-0.34231 -0.33149,-0.55249c-0.05809,-0.09399 -0.03236,-0.14286 -0.1105,-0.22099c-0.07813,-0.07813 -0.14286,-0.25336 -0.22099,-0.33149c-0.07813,-0.07813 -0.12732,-0.02593 -0.33149,-0.1105c-0.14437,-0.0598 -0.14286,-0.14286 -0.22099,-0.22099c-0.07813,-0.07813 -0.03236,-0.14286 -0.1105,-0.22099c-0.07813,-0.07813 -0.1105,-0.1105 -0.22099,-0.1105c-0.1105,0 -0.14286,-0.03236 -0.22099,-0.1105c-0.07813,-0.07813 -0.14286,-0.03237 -0.22099,-0.1105c-0.07813,-0.07813 -0.1105,-0.1105 -0.22099,-0.1105c-0.1105,0 0,-0.33149 -0.1105,-0.33149c-0.1105,0 -0.03387,0.27169 0.1105,0.33149c0.10209,0.04229 0.22099,0.1105 0.22099,0.22099c0,0.1105 0.05241,0.127 0.1105,0.22099c0.1299,0.21018 0.33149,0.33149 0.33149,0.44199c0,0.1105 0.00841,0.17871 0.1105,0.22099c0.14437,0.0598 0.03202,0.10575 0,0c-0.11545,-0.38131 -0.25336,-0.36386 -0.33149,-0.44199c-0.07813,-0.07813 -0.06821,-0.11891 -0.1105,-0.22099c-0.0598,-0.14437 -0.14286,-0.14286 -0.22099,-0.22099c-0.07813,-0.07813 -0.1105,-0.1105 -0.1105,-0.22099c0,-0.1105 0.04577,-0.17522 -0.1105,-0.33149c-0.07813,-0.07813 -0.14286,-0.03236 -0.22099,-0.1105c-0.15627,-0.15627 -0.33149,0 -0.44199,0c-0.1105,0 -0.2375,0.05809 -0.33149,0c-0.21018,-0.1299 -0.25336,-0.25336 -0.33149,-0.33149c-0.07813,-0.07813 -0.17871,-0.00841 -0.22099,-0.1105c-0.1196,-0.28874 -0.25336,-0.25336 -0.33149,-0.33149c-0.07813,-0.07813 -0.14286,-0.14286 -0.22099,-0.22099c-0.07813,-0.07813 -0.03236,-0.14286 -0.1105,-0.22099c-0.07813,-0.07813 0,-0.22099 -0.1105,-0.22099c-0.1105,0 -0.17523,0.04577 -0.33149,-0.1105c-0.07813,-0.07813 -0.1105,-0.22099 -0.1105,-0.33149c0,-0.22099 -0.08511,-0.22395 -0.1105,-0.33149c-0.05677,-0.24047 -0.14286,-0.25336 -0.22099,-0.33149c-0.07813,-0.07813 -0.22099,-0.22099 -0.33149,-0.22099c-0.1105,0 -0.1105,-0.1105 -0.33149,-0.1105c-0.1105,0 -0.28921,-0.11891 -0.33149,-0.22099c-0.0598,-0.14437 -0.14286,-0.14286 -0.22099,-0.22099c-0.07813,-0.07813 -0.1105,-0.1105 -0.22099,-0.1105c-0.1105,0 -0.1105,-0.1105 -0.33149,-0.1105c-0.1105,0 -0.1105,-0.1105 0,-0.1105c0.1105,0 0.03236,0.14286 0.1105,0.22099c0.07813,0.07813 0.14286,0.14286 0.22099,0.22099c0.07813,0.07813 0.1629,0.127 0.22099,0.22099c0.1299,0.21018 0.25336,0.14286 0.33149,0.22099c0.07813,0.07813 0.17871,0.00841 0.22099,0.1105c0.0598,0.14437 0.14286,0.14286 0.22099,0.22099c0.07813,0.07813 0.16119,0.07662 0.22099,0.22099c0.04228,0.10209 -0.03387,0.27169 0.1105,0.33149c0.10209,0.04229 0.1105,0.1105 0.22099,0.22099c0.1105,0.1105 0.33149,0.1105 0.44199,0.1105c0.1105,0 0.22099,0 0.66298,0c0.44199,0 0.55249,0 0.66298,0c0.22099,0 0.28572,-0.06473 0.44199,-0.22099c0.07813,-0.07813 0.12192,-0.10015 0.22099,-0.22099c0.25258,-0.3081 0.36386,-0.52012 0.44199,-0.44199c0.15627,0.15627 0,0.44199 0,0.66298c0,0.1105 -0.11891,0.06821 -0.22099,0.1105c-0.14437,0.0598 -0.22691,0.05972 -0.44199,0.1105c-0.24047,0.05677 -0.23181,0.31209 -0.44199,0.44199c-0.09399,0.05809 -0.37726,0.06473 -0.22099,0.22099c0.07813,0.07813 0.22099,0 0.33149,0c0.1105,0 0.22099,0 0.33149,0c0.1105,0 0.1105,0.1105 0.22099,0.1105c0.1105,0 0.22941,-0.04229 0.33149,0c0.14437,0.0598 0.17523,0.06473 0.33149,0.22099c0.15627,0.15627 -0.09968,0.42259 0.1105,0.55248c0.094,0.05809 0.1105,-0.1105 0.1105,-0.22099c0,-0.1105 0,-0.33149 0,-0.88398c0,-0.33149 -0.1105,-0.55249 -0.1105,-0.66298c0,-0.1105 0,-0.22099 0,-0.33149c0,-0.22099 -0.12686,-0.35673 0,-0.66298c0.1794,-0.43312 0.23995,-0.79244 0.55249,-1.10497c0.07813,-0.07813 0.27583,0.3213 0.33149,0.77348c0.0405,0.32901 0.01688,0.88854 -0.1105,1.32597c-0.09769,0.33549 -0.25336,0.91634 -0.33149,0.99448c-0.07813,0.07813 -0.18688,-0.11843 -0.33149,-0.66298c-0.17937,-0.67543 -0.22099,-1.32597 -0.22099,-1.65746c0,-0.22099 0,-0.55249 0,-0.99448c0,-0.33149 0,-0.66298 0,-0.88398c0,-0.1105 0.1105,-0.33149 0.22099,-0.55248c0.221,-0.44199 0.60622,-0.75401 0.66298,-0.99448c0.02539,-0.10754 0.1105,-0.1105 0.33149,-0.1105c0.1105,0 0.17871,0.00841 0.22099,0.1105c0.0598,0.14437 0.33149,0.33149 0.33149,0.44199c0,0.55249 0.2315,1.43069 -0.1105,1.87845c-0.29995,0.39271 -0.63139,0.46538 -0.88398,0.77348c-0.09907,0.12085 -0.36386,0.29913 -0.44199,0.22099c-0.2344,-0.2344 -0.22099,-0.88398 -0.22099,-1.10497c0,-0.22099 -0.06461,-0.57334 0,-0.66298c0.20431,-0.28347 0.509,-0.17002 0.66298,-0.44199c0.22447,-0.39646 0.22395,-0.68837 0.33149,-0.66298c0.24047,0.05677 0.34831,0.13642 0.55249,0.22099c0.14437,0.0598 0.19561,0.33445 0.22099,0.44199c0.05677,0.24047 0.1105,0.66298 0.1105,1.10497c0,0.44199 -0.44199,0.77348 -0.55249,0.77348c-0.1105,0 -0.43895,-0.07155 -0.55249,-0.55249c-0.05077,-0.21508 0,-0.44199 0,-0.77348c0,-0.22099 0.06068,-0.43703 0.44199,-0.55249c0.10576,-0.03202 0.25336,0.07813 0.33149,0c0.07813,-0.07813 0.00841,-0.17871 0.1105,-0.22099c0.14437,-0.0598 0.05544,0.54563 0,1.21547c-0.00911,0.11012 -0.14286,0.18863 -0.22099,0.1105c-0.2344,-0.2344 -0.0885,-1.00161 0,-1.54696c0.05597,-0.34491 0.20152,-0.49572 0.44199,-0.55248c0.10754,-0.02539 0.25336,-0.07813 0.33149,0c0.15627,0.15627 0,0.77348 0,1.43646c0,0.44199 0,0.33149 0,0c0,-0.66298 -0.1239,-1.47446 0,-1.65746c0.3336,-0.49274 0.99574,-0.43613 2.54144,-0.77348c0.99531,-0.21723 1.92957,-0.4696 2.20995,-0.1105c0.136,0.17419 0.1105,0.22099 0.1105,0.44199c0,0.77348 -0.20757,1.27 -0.55249,1.32597c-0.43628,0.0708 -0.98628,0.27597 -1.54696,0.33149c-0.32988,0.03266 -0.55249,0.04577 -0.55249,-0.1105c0,-0.15627 0.46838,-0.19216 1.43646,-1.10497c0.22739,-0.21441 0.47435,-0.40962 0.55249,-0.33149c0.07813,0.07813 0.01594,0.32421 0.1105,0.55249c0.13372,0.32282 0.19828,1.36974 0,1.65746c-0.89116,1.29313 -1.34247,1.16306 -1.43646,1.10497c-0.63054,-0.38969 -0.44199,-1.52903 -0.44199,-1.87845c0,-0.69885 0.30649,-1.19726 0.88398,-1.43646c0.10209,-0.04229 0.39622,-0.26677 0.55249,-0.1105c0.2344,0.2344 0,0.55249 0,0.77348c0,0.44199 -0.24438,0.74189 -0.55249,0.99447c-0.36254,0.29721 -0.8636,0.77265 -1.76796,0.88398c-0.76769,0.09451 -1.54696,0.22099 -1.76796,0.22099c-0.33149,0 -0.36386,-0.03236 -0.44199,-0.1105c-0.07813,-0.07813 -0.16119,-0.07662 -0.22099,-0.22099c-0.04229,-0.10209 -0.1105,-0.22099 -0.22099,-0.22099c-0.1105,0 -0.22099,0.22099 -0.33149,0.22099c-0.1105,0 -0.30509,0.04596 -0.66298,0.22099c-0.62778,0.30704 -0.91634,0.36386 -0.99448,0.44199c-0.07813,0.07813 -0.1105,0.1105 -0.1105,0.22099c0,0.1105 0,0.22099 0,0.33149c0,0.1105 0,0.33149 0,0.44199c0,0.1105 0,0.22099 0,0.33149c0,0.1105 0.22099,0.1105 0.22099,0.22099c0,0.1105 0,0.22099 -0.1105,0.22099c-0.1105,0 -0.22099,0 -0.33149,0c-0.1105,0 -0.22099,0 -0.33149,0c-0.1105,0 -0.22099,0 -0.33149,0c-0.22099,0 -0.33445,0.02539 -0.44199,0c-0.24047,-0.05677 -0.14286,-0.25336 -0.22099,-0.33149c-0.07813,-0.07813 -0.3399,-0.06821 -0.44199,-0.1105c-0.14437,-0.0598 -0.12131,-0.31209 -0.33149,-0.44199c-0.09399,-0.05809 -0.17871,-0.00841 -0.22099,-0.1105c-0.0598,-0.14437 -0.25336,-0.14286 -0.33149,-0.22099c-0.07813,-0.07813 -0.1105,-0.22099 -0.1105,-0.33149c0,-0.1105 0,-0.22099 0,-0.44199c0,-0.1105 0,-0.22099 0,-0.44199c0,-0.1105 0.03236,-0.14286 0.1105,-0.22099c0.07813,-0.07813 0.127,-0.1629 0.22099,-0.22099c0.21018,-0.1299 0.25336,-0.14286 0.33149,-0.22099c0.07813,-0.07813 0.12732,-0.02593 0.33149,-0.1105c0.14437,-0.0598 0.25336,-0.14286 0.33149,-0.22099c0.07813,-0.07813 0.07662,-0.16119 0.22099,-0.22099c0.10209,-0.04229 0.06821,-0.11891 0.1105,-0.22099c0.0598,-0.14437 0.22941,-0.06821 0.33149,-0.1105c0.28874,-0.1196 0.29762,-0.38219 0.44199,-0.44199c0.10209,-0.04229 0.27169,-0.07662 0.33149,-0.22099c0.04228,-0.10209 0.16119,-0.07662 0.22099,-0.22099c0.04229,-0.10209 0.20152,-0.16423 0.44199,-0.22099c0.10754,-0.02539 0.07662,-0.16119 0.22099,-0.22099c0.10209,-0.04229 0.1105,0.1105 0.1105,0.22099c0,0.1105 0.1105,0.22099 0.1105,0.33149c0,0.1105 0,0.22099 0,0.33149c0,0.22099 0,0.33149 -0.22099,0.55249c-0.1105,0.1105 -0.14286,0.25336 -0.22099,0.33149c-0.07813,0.07813 -0.3061,0.11345 -0.33149,0.22099c-0.05677,0.24047 -0.22099,0.22099 -0.33149,0.22099c-0.1105,0 -0.1105,0.1105 -0.22099,0.1105c-0.1105,0 -0.28572,-0.15627 -0.44199,0c-0.07813,0.07813 -0.03236,0.14286 -0.1105,0.22099c-0.07813,0.07813 -0.22099,0.1105 -0.33149,0.1105c-0.1105,0 -0.14286,0.03236 -0.22099,0.1105c-0.07813,0.07813 -0.22395,-0.02539 -0.33149,0c-0.24047,0.05677 -0.14286,0.25336 -0.22099,0.33149c-0.07813,0.07813 -0.18863,0.25336 -0.1105,0.33149c0.15627,0.15627 0.22941,0.06821 0.33149,0.1105c0.14437,0.0598 0.14286,0.14286 0.22099,0.22099c0.07813,0.07813 0.25336,-0.07813 0.33149,0c0.07813,0.07813 0,0.22099 0,0.33149c0,0.1105 0.16119,0.07662 0.22099,0.22099c0.04228,0.10209 0.14286,0.03236 0.22099,0.1105c0.07813,0.07813 0.1105,0.1105 0.1105,0c0,-0.1105 0,-0.22099 0,-0.33149c0,-0.1105 0,-0.33149 0,-0.44199c0,-0.44199 0.05836,-0.56556 0.1105,-0.66298c0.18799,-0.35126 0.29762,-0.38219 0.44199,-0.44199c0.10209,-0.04229 0.22941,0.04229 0.33149,0c0.14437,-0.0598 0.33149,-0.1105 0.33149,-0.22099c0,-0.1105 0,-0.33149 0,-0.44199c0,-0.1105 -0.0911,-0.12132 -0.22099,-0.33149c-0.05809,-0.09399 0,-0.22099 -0.1105,-0.22099c-0.1105,0 -0.22099,0 -0.33149,0c-0.1105,0 -0.28921,0.10209 -0.33149,0c-0.0598,-0.14437 0.23782,-0.24692 0.44199,-0.33149c0.14437,-0.0598 0.31522,-0.24012 0.44199,-0.33149c0.20044,-0.14447 0.22099,-0.22099 0.33149,-0.22099c0.1105,0 0.30906,-0.13884 0.44199,-0.22099c0.29724,-0.1837 0.61721,-0.06473 0.77348,-0.22099c0.15627,-0.15627 0.1105,-0.22099 0.22099,-0.22099c0.1105,0 0.55249,0 0.77348,-0.1105c0.22099,-0.1105 0.44199,-0.22099 0.66298,-0.22099c0.1105,0 0.22099,0 0.33149,0c0.1105,0 0.44199,0 0.88398,0c0.33149,0 0.66298,0 0.88398,0c0.1105,0 0.29967,-0.10847 0.88398,-0.22099c0.21701,-0.04179 0.33149,-0.1105 0.66298,-0.22099l0.44199,0" id="svg_18" stroke="#fbbc34" fill="none"/>
  <path d="m5.87293,27.37569c-0.1105,0.33149 -0.06473,0.61721 -0.22099,0.77348c-0.07813,0.07813 -0.27169,0.29762 -0.33149,0.44199c-0.08457,0.20417 -0.03236,0.36386 -0.1105,0.44199c-0.15627,0.15627 0,0.55249 0,0.66298c0,0.1105 -0.14286,0.18863 -0.22099,0.1105c-0.15627,-0.15627 -0.16119,-0.18712 -0.22099,-0.33149c-0.04228,-0.10209 -0.22099,-0.33149 -0.22099,-0.44199c0,-0.1105 0,-0.33149 0,-0.66298c0,-0.1105 0.1105,-0.1105 0.22099,-0.1105c0.22099,0 0.29762,0.0507 0.44199,0.1105c0.10209,0.04229 0.14286,0.14286 0.22099,0.22099c0.07813,0.07813 0.23237,-0.06601 0,-0.44199c-0.1299,-0.21018 -0.81459,-0.59504 -1.21547,-0.88398c-0.25354,-0.18274 -0.3258,-0.47499 -0.44199,-0.66298c-0.1299,-0.21018 -0.48474,-0.43288 -0.77348,-0.55248c-0.10209,-0.04229 -0.01082,-0.2016 -0.22099,-0.33149c-0.09399,-0.05809 -0.22099,0 -0.33149,-0.1105c-0.1105,-0.1105 -0.14286,-0.14286 -0.22099,-0.22099c-0.07813,-0.07813 -0.14286,-0.03236 -0.22099,-0.1105c-0.07813,-0.07813 -0.14286,-0.03236 -0.22099,-0.1105c-0.07813,-0.07813 -0.06821,-0.11891 -0.1105,-0.22099c-0.0598,-0.14437 -0.22099,-0.33149 -0.22099,-0.22099c0,0.1105 0.1105,0.1105 0.22099,0.22099c0.1105,0.1105 0.44199,0.22099 0.77348,0.55249c0.44199,0.44199 1.25123,1.16245 1.43646,1.32597c0.29867,0.26366 0.31079,0.35434 0.55249,0.55249c0.3081,0.25258 0.55249,0.55249 0.88398,0.88398c0.44199,0.44199 0.85694,0.78807 1.10497,1.21547c0.39994,0.68917 1.49384,1.16665 1.76796,1.54696c0.14447,0.20044 0.3184,0.35252 0.66298,0.55248c0.2137,0.12402 0.43683,0.22894 0.77348,0.44199c0.54444,0.34454 0.92509,0.48454 1.32597,0.77348c0.50708,0.36548 0.66298,0.55249 0.99447,0.66298c0.33149,0.1105 0.31807,0.27552 0.66298,0.33149c0.21814,0.0354 0.22099,0.1105 0.44199,0.33149c0.1105,0.1105 0.44199,0.33149 0.66298,0.55249c0.22099,0.22099 0.63249,0.68759 0.99447,1.10497c0.30716,0.35416 0.57588,0.74189 0.88398,0.99448c0.2417,0.19814 0.36386,0.25336 0.44199,0.33149c0.07813,0.07813 0.1105,0.1105 0.22099,0.1105c0.1105,0 0.14286,0.03236 0.22099,0.1105c0.07813,0.07813 0.1105,0.22099 0.1105,0.33149c0,0.22099 0.21796,0.29254 0.33149,0.77348c0.02539,0.10754 0,0.33149 0,0.44199c0,0.1105 0.12997,0.05677 -0.1105,0c-0.10754,-0.02539 -0.22099,-0.221 -0.33149,-0.221c-0.1105,0 -0.18712,-0.0507 -0.33149,-0.1105c-0.10209,-0.04229 -0.27472,0.01947 -0.33149,-0.22099c-0.02539,-0.10754 0.04228,-0.3399 0,-0.44199c-0.0598,-0.14437 -0.1105,-0.33149 -0.1105,-0.55249c0,-0.1105 0.11891,-0.15278 0.22099,-0.1105c0.14437,0.0598 0.08499,0.1573 0.22099,0.33149c0.28037,0.3591 0.55544,0.35688 0.66298,0.33149c0.24047,-0.05677 0.47435,-0.25336 0.55249,-0.33149c0.15627,-0.15627 0.0507,-0.29762 0.1105,-0.44199c0.04229,-0.10209 0,-0.55249 0.44199,-0.99448l0.22099,-0.22099l0.44199,-0.221l0.77348,0" id="svg_19" stroke="#fbbc34" fill="none"/>
  <path d="m19.0221,39.86188c0,0.221 -0.20152,0.60622 -0.44199,0.66299c-0.10754,0.02539 -0.25336,0.14286 -0.33149,0.22099c-0.07813,0.07813 -0.1105,0.1105 -0.22099,0.1105c-0.33149,0 -0.58485,0.07813 -0.66298,0c-0.07813,-0.07813 0.1105,0 0.33149,0.22099c0.33149,0.33149 0.64358,0.5633 0.77348,0.77348c0.11618,0.18799 0.14286,0.25336 0.22099,0.33149c0.07813,0.07813 0,-0.22099 -0.1105,-0.44199c-0.1105,-0.221 -0.46301,-0.64989 -0.66298,-0.99448c-0.24803,-0.4274 -0.64671,-0.68211 -0.77348,-0.77348c-0.20044,-0.14447 -0.70028,-0.80774 -0.88398,-1.10497c-0.16431,-0.26586 -0.33149,-0.221 -0.44199,-0.221c-0.22099,0 -0.42089,-0.25651 -0.77348,-0.44199c-0.52663,-0.27702 -0.69535,-0.14286 -0.77348,-0.221c-0.07813,-0.07813 -0.03236,-0.14286 -0.1105,-0.22099c-0.07813,-0.07813 0.07813,-0.25336 0,-0.33149c-0.07813,-0.07813 -0.15678,-0.26728 -0.33149,-0.44199c-0.17471,-0.17471 -0.16119,-0.51861 -0.22099,-0.66298c-0.04228,-0.10209 -0.03236,-0.29913 -0.1105,-0.22099c-0.07813,0.07813 0,0.22099 0,0.44199c0,0.1105 0,0.33149 0,0.44199c0,0.1105 0,0.221 0,0.1105c0,-0.1105 -0.1105,-0.1105 -0.1105,-0.221c0,-0.1105 -0.1105,-0.22099 -0.22099,-0.33149c-0.1105,-0.1105 -0.07653,-0.24155 -0.22099,-0.44199c-0.09137,-0.12677 -0.22099,-0.22099 -0.22099,-0.1105c0,0.22099 0.21101,0.36553 0.44199,0.77348c0.22447,0.39646 0.42115,0.56736 0.66298,0.88398c0.2121,0.27769 0.33149,0.55249 0.33149,0.66298c0,0.1105 0.1105,0.1105 0.22099,0.1105c0.1105,0 0.22099,0.22099 0.33149,0.22099c0.1105,0 0.22941,-0.04229 0.33149,0c0.14437,0.0598 0.33149,0.1105 0.44199,0.1105c0.1105,0 0.25336,-0.07813 0.33149,0c0.07814,0.07814 -0.22941,0.04229 -0.33149,0c-0.28874,-0.1196 -0.70124,-0.40944 -0.88398,-0.66298c-0.14447,-0.20044 -0.11345,-0.3061 -0.22099,-0.33149c-0.24047,-0.05677 -0.30906,-0.24934 -0.44199,-0.33149c-0.29724,-0.1837 -0.25336,-0.25336 -0.33149,-0.33149c-0.15627,-0.15627 -0.22099,-0.1105 -0.33149,-0.1105c-0.1105,0 -0.22099,-0.22099 -0.33149,-0.33149c-0.1105,-0.1105 -0.14286,-0.14286 -0.22099,-0.22099c-0.07814,-0.07814 -0.14286,-0.14286 -0.22099,-0.221c-0.07813,-0.07813 -0.03236,-0.14286 -0.1105,-0.22099c-0.15627,-0.15627 -0.28921,-0.00841 -0.33149,-0.1105c-0.1196,-0.28875 -0.23181,-0.42259 -0.44199,-0.55249c-0.18799,-0.11618 -0.25336,-0.14286 -0.33149,-0.221c-0.07813,-0.07813 -0.14286,-0.03236 -0.22099,-0.1105c-0.07813,-0.07813 -0.1105,-0.22099 -0.33149,-0.44199c-0.1105,-0.1105 -0.25336,-0.14286 -0.33149,-0.22099c-0.07813,-0.07813 -0.22099,-0.1105 -0.33149,-0.1105c-0.1105,0 -0.1105,-0.1105 -0.22099,-0.221c-0.1105,-0.1105 -0.27472,-0.20152 -0.33149,-0.44199c-0.02539,-0.10754 -0.06821,-0.11891 -0.1105,-0.221c-0.1196,-0.28874 -0.18702,-0.46254 -0.33149,-0.66298c-0.09137,-0.12677 -0.33149,-0.33149 -0.44199,-0.44199c-0.1105,-0.1105 -0.23181,-0.42259 -0.44199,-0.55248c-0.094,-0.05809 -0.13497,-0.09054 -0.22099,-0.22099c-0.32757,-0.49677 -0.25336,-0.58485 -0.33149,-0.66298c-0.07813,-0.07813 -0.1629,-0.2375 -0.22099,-0.33149c-0.1299,-0.21018 -0.53271,-0.47499 -0.88398,-0.66298c-0.09742,-0.05214 -0.22099,0 -0.33149,0c-0.1105,0 -0.25336,-0.07813 -0.33149,0c-0.07813,0.07813 0,0.22099 0,0.33149c0,0.1105 0.03236,0.14286 0.1105,0.22099c0.07813,0.07813 0.0928,0.11193 0.1105,0.22099c0.05597,0.34491 0.18712,0.38219 0.33149,0.44199c0.10209,0.04229 0.44494,-0.02539 0.55249,0c0.24047,0.05677 0.3399,0.17871 0.44199,0.22099c0.14437,0.0598 0.18712,0.16119 0.33149,0.22099c0.10209,0.04229 0.22941,-0.04229 0.33149,0c0.14437,0.0598 0.12131,0.20159 0.33149,0.33149c0.094,0.05809 0.14286,0.03237 0.22099,0.1105c0.07813,0.07813 0.17523,0.06473 0.33149,0.22099c0.07813,0.07813 0.07813,0.25336 0,0.33149c-0.07813,0.07813 -0.17871,-0.00841 -0.22099,-0.1105c-0.0598,-0.14437 -0.14286,-0.14286 -0.22099,-0.221c-0.07813,-0.07813 -0.17871,-0.2294 -0.22099,-0.33149c-0.0598,-0.14437 -0.03236,-0.25336 -0.1105,-0.33149c-0.07813,-0.07813 -0.14286,-0.14286 -0.22099,-0.22099c-0.07813,-0.07813 -0.1105,-0.1105 -0.1105,0c0,0.1105 0,0.22099 0,0.44199c0,0.1105 0.06821,0.11891 0.1105,0.22099c0.0598,0.14437 0.22099,0.22099 0.22099,0.33149c0,0.1105 0.1105,0.1105 0.22099,0.1105c0.1105,0 0.14286,0.03236 0.22099,0.1105c0.07813,0.07813 0.07662,0.16119 0.22099,0.22099c0.10209,0.04229 0.33149,0 0.66298,0c0.1105,0 0.33149,0 0.44199,0c0.44199,0 0.55249,0 0.77348,0c0.22099,0 0.55249,0 0.66298,0c0.1105,0 0.45188,-0.01416 0.77348,0.221c0.57113,0.41762 1.32597,0.55248 1.98895,0.77348c0.33149,0.1105 1.00091,0.18763 1.65746,0.33149c1.23067,0.26965 1.42305,0.49652 1.76795,0.55249c0.32721,0.0531 0.55399,0.14696 0.99448,0.1105c0.66984,-0.05544 1.62459,-0.72525 2.20994,-0.99448c0.63491,-0.29202 0.88398,-0.221 0.99448,-0.44199l0,-0.22099l0,-0.33149" id="svg_20" stroke="#fbbc34" fill="none"/>
  <path d="m17.47514,9.91713c-0.1105,0 -0.0524,0.127 -0.1105,0.22099c-0.1299,0.21018 -0.36386,0.14286 -0.44199,0.22099c-0.07813,0.07813 0.07813,0.25336 0,0.33149c-0.07813,0.07813 -0.18712,0.0507 -0.33149,0.1105c-0.10209,0.04228 -0.22099,0.1105 -0.33149,0.1105c-0.1105,0 -0.22099,0 -0.33149,0.1105c-0.22099,0.22099 -0.49572,0.42251 -0.55249,0.66298c-0.02539,0.10754 -0.27169,0.07662 -0.33149,0.22099c-0.04228,0.10209 0.1105,0.1105 0.22099,0.1105c0.33149,0 0.47435,-0.25336 0.55249,-0.33149c0.15627,-0.15627 0.33149,0 0.44199,-0.1105c0.1105,-0.1105 0.21258,-0.28921 0.1105,-0.33149c-0.14437,-0.0598 -0.40811,0.60318 -0.55249,0.66298c-0.10209,0.04229 -0.14286,0.03236 -0.22099,0.1105c-0.15627,0.15627 -0.70927,0.15678 -0.88398,0.33149c-0.17471,0.17471 -0.17871,0.22941 -0.22099,0.33149c-0.0598,0.14437 -0.22099,0.1105 -0.22099,0.22099c0,0.1105 -0.1105,0.22099 -0.55249,0.44199c-0.22099,0.1105 -0.36386,0.58485 -0.44199,0.66298c-0.07813,0.07813 -0.14286,0.14286 -0.22099,0.22099c-0.07813,0.07813 -0.20159,0.01082 -0.33149,0.22099c-0.05809,0.094 -0.34292,0.10015 -0.44199,0.22099c-0.25258,0.3081 -0.40812,0.38219 -0.55249,0.44199c-0.10209,0.04228 -0.25336,-0.07813 -0.33149,0c-0.07813,0.07813 -0.07662,0.16119 -0.22099,0.22099c-0.10209,0.04229 -0.14286,0.14286 -0.22099,0.22099c-0.07813,0.07813 -0.03236,0.14286 -0.1105,0.22099c-0.07813,0.07813 -0.55536,0.02077 -0.88398,0.55249c-0.1837,0.29724 -0.31209,0.23181 -0.44199,0.44199c-0.05809,0.09399 0.07813,0.25336 0,0.33149c-0.15627,0.15627 -0.22099,0.22099 -0.1105,0.22099c0.22099,0 0.66298,0 1.21547,0l0.55249,0.22099l0.22099,0" id="svg_21" stroke="#fbbc34" fill="none"/>
  <line stroke-linecap="undefined" stroke-linejoin="undefined" id="svg_22" y2="16.54696" x2="34.71271" y1="25.82873" x1="26.09392" stroke="#ffffff" fill="none"/>
  <line transform="rotate(89.4669 30.7348 29.6961)" stroke-linecap="undefined" stroke-linejoin="undefined" id="svg_23" y2="25.05525" x2="35.0442" y1="34.33702" x1="26.42541" stroke="#ffffff" fill="none"/>
 </g>
</svg>